<mxfile host="Electron" agent="Mozilla/5.0 (Windows NT 10.0; Win64; x64) AppleWebKit/537.36 (KHTML, like Gecko) draw.io/26.0.15 Chrome/132.0.6834.196 Electron/34.2.0 Safari/537.36" version="26.0.15">
  <diagram id="l03Lf5qm2AaWcnBUnUe5" name="ページ1">
    <mxGraphModel dx="1687" dy="1024" grid="1" gridSize="10" guides="1" tooltips="1" connect="1" arrows="1" fold="1" page="1" pageScale="1" pageWidth="1000" pageHeight="500" math="1" shadow="0">
      <root>
        <mxCell id="0" />
        <mxCell id="1" parent="0" />
        <mxCell id="akT__T_43fdLLMf0LZnK-46" value="" style="rounded=0;whiteSpace=wrap;html=1;strokeColor=none;" vertex="1" parent="1">
          <mxGeometry x="10" y="10" width="980" height="480" as="geometry" />
        </mxCell>
        <mxCell id="akT__T_43fdLLMf0LZnK-37" value="" style="rounded=0;whiteSpace=wrap;html=1;strokeColor=none;fillColor=#FFE6CC;" vertex="1" parent="1">
          <mxGeometry x="593" y="112" width="360" height="30" as="geometry" />
        </mxCell>
        <mxCell id="akT__T_43fdLLMf0LZnK-38" value="" style="rounded=0;whiteSpace=wrap;html=1;strokeColor=none;fillColor=#FFB366;" vertex="1" parent="1">
          <mxGeometry x="593" y="142" width="360" height="60" as="geometry" />
        </mxCell>
        <mxCell id="akT__T_43fdLLMf0LZnK-39" value="" style="rounded=0;whiteSpace=wrap;html=1;strokeColor=none;fillColor=#CC6600;" vertex="1" parent="1">
          <mxGeometry x="593" y="202" width="360" height="110" as="geometry" />
        </mxCell>
        <mxCell id="akT__T_43fdLLMf0LZnK-1" value="" style="endArrow=classic;html=1;rounded=0;" edge="1" parent="1">
          <mxGeometry width="50" height="50" relative="1" as="geometry">
            <mxPoint x="73" y="332" as="sourcePoint" />
            <mxPoint x="73" y="72" as="targetPoint" />
          </mxGeometry>
        </mxCell>
        <mxCell id="akT__T_43fdLLMf0LZnK-4" value="" style="endArrow=classic;html=1;rounded=0;" edge="1" parent="1">
          <mxGeometry width="50" height="50" relative="1" as="geometry">
            <mxPoint x="53" y="312" as="sourcePoint" />
            <mxPoint x="393" y="312" as="targetPoint" />
          </mxGeometry>
        </mxCell>
        <mxCell id="akT__T_43fdLLMf0LZnK-5" value="" style="endArrow=none;html=1;rounded=0;curved=1;" edge="1" parent="1">
          <mxGeometry width="50" height="50" relative="1" as="geometry">
            <mxPoint x="73" y="312" as="sourcePoint" />
            <mxPoint x="353" y="112" as="targetPoint" />
            <Array as="points">
              <mxPoint x="83" y="112" />
            </Array>
          </mxGeometry>
        </mxCell>
        <mxCell id="akT__T_43fdLLMf0LZnK-6" value="`y`" style="text;html=1;align=center;verticalAlign=middle;whiteSpace=wrap;rounded=0;fontSize=24;" vertex="1" parent="1">
          <mxGeometry x="43" y="40" width="60" height="30" as="geometry" />
        </mxCell>
        <mxCell id="akT__T_43fdLLMf0LZnK-7" value="`x`" style="text;html=1;align=center;verticalAlign=middle;whiteSpace=wrap;rounded=0;fontSize=24;" vertex="1" parent="1">
          <mxGeometry x="383" y="295" width="60" height="30" as="geometry" />
        </mxCell>
        <mxCell id="akT__T_43fdLLMf0LZnK-9" value="" style="endArrow=none;html=1;rounded=0;" edge="1" parent="1">
          <mxGeometry width="50" height="50" relative="1" as="geometry">
            <mxPoint x="63" y="112" as="sourcePoint" />
            <mxPoint x="353" y="112" as="targetPoint" />
          </mxGeometry>
        </mxCell>
        <mxCell id="akT__T_43fdLLMf0LZnK-10" value="" style="endArrow=none;html=1;rounded=0;" edge="1" parent="1">
          <mxGeometry width="50" height="50" relative="1" as="geometry">
            <mxPoint x="353" y="322" as="sourcePoint" />
            <mxPoint x="353" y="112" as="targetPoint" />
          </mxGeometry>
        </mxCell>
        <mxCell id="akT__T_43fdLLMf0LZnK-11" value="`O`" style="text;html=1;align=center;verticalAlign=middle;whiteSpace=wrap;rounded=0;fontSize=24;" vertex="1" parent="1">
          <mxGeometry x="30" y="312" width="60" height="30" as="geometry" />
        </mxCell>
        <mxCell id="akT__T_43fdLLMf0LZnK-12" value="" style="endArrow=none;html=1;rounded=0;" edge="1" parent="1">
          <mxGeometry width="50" height="50" relative="1" as="geometry">
            <mxPoint x="833" y="142" as="sourcePoint" />
            <mxPoint x="953" y="112" as="targetPoint" />
          </mxGeometry>
        </mxCell>
        <mxCell id="akT__T_43fdLLMf0LZnK-13" value="" style="endArrow=none;html=1;rounded=0;" edge="1" parent="1">
          <mxGeometry width="50" height="50" relative="1" as="geometry">
            <mxPoint x="713" y="202" as="sourcePoint" />
            <mxPoint x="833" y="142" as="targetPoint" />
          </mxGeometry>
        </mxCell>
        <mxCell id="akT__T_43fdLLMf0LZnK-14" value="" style="endArrow=none;html=1;rounded=0;" edge="1" parent="1">
          <mxGeometry width="50" height="50" relative="1" as="geometry">
            <mxPoint x="593" y="312" as="sourcePoint" />
            <mxPoint x="713" y="202" as="targetPoint" />
          </mxGeometry>
        </mxCell>
        <mxCell id="akT__T_43fdLLMf0LZnK-15" value="" style="endArrow=none;html=1;rounded=0;" edge="1" parent="1">
          <mxGeometry width="50" height="50" relative="1" as="geometry">
            <mxPoint x="713" y="332" as="sourcePoint" />
            <mxPoint x="713" y="82" as="targetPoint" />
          </mxGeometry>
        </mxCell>
        <mxCell id="akT__T_43fdLLMf0LZnK-16" value="" style="endArrow=none;html=1;rounded=0;" edge="1" parent="1">
          <mxGeometry width="50" height="50" relative="1" as="geometry">
            <mxPoint x="833" y="332" as="sourcePoint" />
            <mxPoint x="833" y="82" as="targetPoint" />
          </mxGeometry>
        </mxCell>
        <mxCell id="akT__T_43fdLLMf0LZnK-17" value="" style="endArrow=none;html=1;rounded=0;" edge="1" parent="1">
          <mxGeometry width="50" height="50" relative="1" as="geometry">
            <mxPoint x="593" y="142" as="sourcePoint" />
            <mxPoint x="953" y="142" as="targetPoint" />
          </mxGeometry>
        </mxCell>
        <mxCell id="akT__T_43fdLLMf0LZnK-18" value="" style="endArrow=none;html=1;rounded=0;" edge="1" parent="1">
          <mxGeometry width="50" height="50" relative="1" as="geometry">
            <mxPoint x="593" y="202" as="sourcePoint" />
            <mxPoint x="953" y="202" as="targetPoint" />
          </mxGeometry>
        </mxCell>
        <mxCell id="akT__T_43fdLLMf0LZnK-19" value="`x_k`" style="text;html=1;align=center;verticalAlign=middle;whiteSpace=wrap;rounded=0;fontSize=24;" vertex="1" parent="1">
          <mxGeometry x="683" y="332" width="60" height="30" as="geometry" />
        </mxCell>
        <mxCell id="akT__T_43fdLLMf0LZnK-20" value="`x_{k+1}`" style="text;html=1;align=center;verticalAlign=middle;whiteSpace=wrap;rounded=0;fontSize=24;" vertex="1" parent="1">
          <mxGeometry x="813" y="332" width="60" height="30" as="geometry" />
        </mxCell>
        <mxCell id="akT__T_43fdLLMf0LZnK-23" value="`\frac{\sin \theta_{k-1}}{v_{k-1}}=\frac{\sin \theta_{k}}{v_{k}}=\frac{\sin \theta_{k+1}}{v_{k+1}}`" style="text;html=1;align=center;verticalAlign=middle;whiteSpace=wrap;rounded=0;fontSize=24;" vertex="1" parent="1">
          <mxGeometry x="613" y="402" width="340" height="80" as="geometry" />
        </mxCell>
        <mxCell id="akT__T_43fdLLMf0LZnK-24" value="" style="endArrow=none;html=1;rounded=0;curved=1;" edge="1" parent="1">
          <mxGeometry width="50" height="50" relative="1" as="geometry">
            <mxPoint x="833" y="127" as="sourcePoint" />
            <mxPoint x="849" y="138" as="targetPoint" />
            <Array as="points">
              <mxPoint x="847" y="126" />
            </Array>
          </mxGeometry>
        </mxCell>
        <mxCell id="akT__T_43fdLLMf0LZnK-25" value="" style="endArrow=none;html=1;rounded=0;curved=1;" edge="1" parent="1">
          <mxGeometry width="50" height="50" relative="1" as="geometry">
            <mxPoint x="816" y="151" as="sourcePoint" />
            <mxPoint x="833" y="161" as="targetPoint" />
            <Array as="points">
              <mxPoint x="819" y="162" />
            </Array>
          </mxGeometry>
        </mxCell>
        <mxCell id="akT__T_43fdLLMf0LZnK-26" value="" style="endArrow=none;html=1;rounded=0;curved=1;" edge="1" parent="1">
          <mxGeometry width="50" height="50" relative="1" as="geometry">
            <mxPoint x="713" y="183" as="sourcePoint" />
            <mxPoint x="730" y="194" as="targetPoint" />
            <Array as="points">
              <mxPoint x="727" y="182" />
            </Array>
          </mxGeometry>
        </mxCell>
        <mxCell id="akT__T_43fdLLMf0LZnK-27" value="" style="endArrow=none;html=1;rounded=0;curved=1;" edge="1" parent="1">
          <mxGeometry width="50" height="50" relative="1" as="geometry">
            <mxPoint x="699" y="215" as="sourcePoint" />
            <mxPoint x="713" y="222" as="targetPoint" />
            <Array as="points">
              <mxPoint x="702" y="223" />
            </Array>
          </mxGeometry>
        </mxCell>
        <mxCell id="akT__T_43fdLLMf0LZnK-28" value="`\theta_{k-1}`" style="text;html=1;align=center;verticalAlign=middle;whiteSpace=wrap;rounded=0;fontSize=24;" vertex="1" parent="1">
          <mxGeometry x="655" y="249" width="60" height="30" as="geometry" />
        </mxCell>
        <mxCell id="akT__T_43fdLLMf0LZnK-29" value="`\theta_{k}`" style="text;html=1;align=center;verticalAlign=middle;whiteSpace=wrap;rounded=0;fontSize=24;" vertex="1" parent="1">
          <mxGeometry x="704" y="155" width="60" height="30" as="geometry" />
        </mxCell>
        <mxCell id="akT__T_43fdLLMf0LZnK-30" value="`\theta_{k}`" style="text;html=1;align=center;verticalAlign=middle;whiteSpace=wrap;rounded=0;fontSize=24;" vertex="1" parent="1">
          <mxGeometry x="786" y="161" width="60" height="30" as="geometry" />
        </mxCell>
        <mxCell id="akT__T_43fdLLMf0LZnK-31" value="`\Delta x`" style="text;html=1;align=center;verticalAlign=middle;whiteSpace=wrap;rounded=0;fontSize=24;" vertex="1" parent="1">
          <mxGeometry x="743" y="62" width="60" height="30" as="geometry" />
        </mxCell>
        <mxCell id="akT__T_43fdLLMf0LZnK-32" value="" style="endArrow=classic;startArrow=classic;html=1;rounded=0;" edge="1" parent="1">
          <mxGeometry width="50" height="50" relative="1" as="geometry">
            <mxPoint x="713" y="92" as="sourcePoint" />
            <mxPoint x="833" y="92" as="targetPoint" />
          </mxGeometry>
        </mxCell>
        <mxCell id="akT__T_43fdLLMf0LZnK-33" value="`\theta_{k+1}`" style="text;html=1;align=center;verticalAlign=middle;whiteSpace=wrap;rounded=0;fontSize=24;" vertex="1" parent="1">
          <mxGeometry x="846" y="92" width="60" height="30" as="geometry" />
        </mxCell>
        <mxCell id="akT__T_43fdLLMf0LZnK-34" value="`v_{k+1}`" style="text;html=1;align=center;verticalAlign=middle;whiteSpace=wrap;rounded=0;fontSize=24;" vertex="1" parent="1">
          <mxGeometry x="598" y="107" width="60" height="30" as="geometry" />
        </mxCell>
        <mxCell id="akT__T_43fdLLMf0LZnK-35" value="`v_{k}`" style="text;html=1;align=center;verticalAlign=middle;whiteSpace=wrap;rounded=0;fontSize=24;" vertex="1" parent="1">
          <mxGeometry x="595" y="161" width="60" height="30" as="geometry" />
        </mxCell>
        <mxCell id="akT__T_43fdLLMf0LZnK-36" value="`v_{k-1}`" style="text;html=1;align=center;verticalAlign=middle;whiteSpace=wrap;rounded=0;fontSize=24;" vertex="1" parent="1">
          <mxGeometry x="595" y="212" width="60" height="30" as="geometry" />
        </mxCell>
        <mxCell id="akT__T_43fdLLMf0LZnK-40" value="" style="rounded=0;whiteSpace=wrap;html=1;strokeColor=#FF0000;" vertex="1" parent="1">
          <mxGeometry x="143" y="146" width="30" height="20" as="geometry" />
        </mxCell>
        <mxCell id="akT__T_43fdLLMf0LZnK-41" value="" style="endArrow=none;html=1;rounded=0;exitX=1;exitY=0;exitDx=0;exitDy=0;entryX=0;entryY=0;entryDx=0;entryDy=0;strokeColor=#FF0000;" edge="1" parent="1" source="akT__T_43fdLLMf0LZnK-40" target="akT__T_43fdLLMf0LZnK-37">
          <mxGeometry width="50" height="50" relative="1" as="geometry">
            <mxPoint x="358" y="259" as="sourcePoint" />
            <mxPoint x="582" y="113" as="targetPoint" />
          </mxGeometry>
        </mxCell>
        <mxCell id="akT__T_43fdLLMf0LZnK-42" value="" style="endArrow=none;html=1;rounded=0;exitX=1;exitY=1;exitDx=0;exitDy=0;strokeColor=#FF0000;" edge="1" parent="1" source="akT__T_43fdLLMf0LZnK-40">
          <mxGeometry width="50" height="50" relative="1" as="geometry">
            <mxPoint x="358" y="259" as="sourcePoint" />
            <mxPoint x="594" y="312" as="targetPoint" />
          </mxGeometry>
        </mxCell>
        <mxCell id="akT__T_43fdLLMf0LZnK-43" value="`g`" style="text;html=1;align=center;verticalAlign=middle;whiteSpace=wrap;rounded=0;fontSize=24;" vertex="1" parent="1">
          <mxGeometry x="513" y="214" width="60" height="30" as="geometry" />
        </mxCell>
        <mxCell id="akT__T_43fdLLMf0LZnK-45" value="" style="endArrow=classic;html=1;rounded=0;" edge="1" parent="1">
          <mxGeometry width="50" height="50" relative="1" as="geometry">
            <mxPoint x="542.4100000000001" y="214" as="sourcePoint" />
            <mxPoint x="542" y="155" as="targetPoint" />
          </mxGeometry>
        </mxCell>
      </root>
    </mxGraphModel>
  </diagram>
</mxfile>
